<svg xmlns="http://www.w3.org/2000/svg" viewBox="0 0 30.36 16.85"><defs><style>.cls-1,.cls-2,.cls-3{fill:#fff;}.cls-1,.cls-2{stroke:#fff;}.cls-1{stroke-miterlimit:10;stroke-width:0.21px;}.cls-2{stroke-width:0.2px;}</style></defs><title>logotextwhite</title><g id="GRAPHICS"><path class="cls-1" d="M4.68,16.74H.3c-.14,0-.2-.06-.2-.19V4.66c0-.13.06-.19.2-.19H4.68A3.37,3.37,0,0,1,8.3,8.09v.2a2.32,2.32,0,0,1-.42,1.32,8,8,0,0,0-.69.92c0,.08.28.35.65.88a2.73,2.73,0,0,1,.46,1.46v.29A3.34,3.34,0,0,1,4.68,16.74Zm1.4-8.82a1.42,1.42,0,0,0-1.4-1.4H2.54c-.14,0-.2.05-.2.19V9.3c0,.14.06.2.2.2H4.68a1.41,1.41,0,0,0,1.4-1.41Zm0,5a1.37,1.37,0,0,0-1.4-1.38H2.54c-.14,0-.2.06-.2.2V14.5c0,.14.06.2.2.2H4.68a1.4,1.4,0,0,0,1.4-1.4Z"/><path class="cls-2" d="M13.55,11.77a4.74,4.74,0,0,1-1.48-.37c-.17,0-.06.37-.32.37H10.18a.17.17,0,0,1-.19-.19V.28c0-.13.06-.18.19-.18h1.74a.16.16,0,0,1,.18.18V3.45c0,.13.06.2.13.2a5.23,5.23,0,0,1,1.48-.37,3.15,3.15,0,0,1,3.17,3.26v2A3.18,3.18,0,0,1,13.55,11.77Zm1.2-5.23a1.28,1.28,0,0,0-1.31-1.31A1.29,1.29,0,0,0,12.1,6.54v2a1.32,1.32,0,0,0,1.34,1.33,1.28,1.28,0,0,0,1.31-1.33Z"/><path class="cls-2" d="M21.28,12a3.18,3.18,0,0,1-3.47-3.28V6.38A3.18,3.18,0,0,1,21.28,3.1a3.17,3.17,0,0,1,3.44,3.28V8.67A3.17,3.17,0,0,1,21.28,12Zm1.31-5.57a1.33,1.33,0,1,0-2.65,0V8.67a1.33,1.33,0,1,0,2.65,0Z"/><path class="cls-2" d="M29.87,12a3.86,3.86,0,0,1-2.43-1,3.05,3.05,0,0,1-.88-2.28V5.41c0-.13-.06-.18-.19-.18h-1A.17.17,0,0,1,25.22,5l0-1,2.18-2.31.13-.06h.91a.17.17,0,0,1,.19.19V3.1c0,.13,0,.18.18.18h1.22a.17.17,0,0,1,.19.19V5a.17.17,0,0,1-.19.19H28.85c-.13,0-.18,0-.18.18V8.67a1.21,1.21,0,0,0,.85,1.19c.52.11.74.09.74.31v1.6C30.26,11.93,30.15,12,29.87,12Z"/><ellipse class="cls-3" cx="20.08" cy="15.1" rx="10.17" ry="1.74"/></g></svg>